<?xml version="1.0" encoding="utf-8"?>
<!-- Generator: Adobe Illustrator 24.2.1, SVG Export Plug-In . SVG Version: 6.00 Build 0)  -->
<svg version="1.1" id="Layer_1" xmlns="http://www.w3.org/2000/svg" xmlns:xlink="http://www.w3.org/1999/xlink" x="0px" y="0px"
	 viewBox="0 0 26 26" style="enable-background:new 0 0 26 26;" xml:space="preserve">
<style type="text/css">
	.st0{fill:#FFFFFF;}
	.st1{fill:#F26F29;}
</style>
<path class="st0" d="M2,11.7c0-1.9,0-3.9,0-5.8c0-1.5,1.1-2.6,2.7-2.6c1.3,0,2.6,0,3.9,0c0.2,0,0.4,0.1,0.5,0.2
	c0.4,0.4,0.9,0.8,1.3,1.3C10.4,4.9,10.6,5,10.8,5c3.5,0,7,0,10.5,0c1.3,0,2.4,0.9,2.6,2.2c0,0.2,0,0.3,0,0.5c0,3.4,0,6.7,0,10.1
	c0,2.5-1.9,4.7-4.4,5c-2.1,0.3-3.8-0.5-5-2.2c-0.1-0.2-0.3-0.3-0.5-0.3c-3.2,0-6.3,0-9.5,0c-1.6,0-2.7-1.1-2.7-2.7
	C2,15.6,2,13.7,2,11.7z M18.9,21.9c2.4,0,4.2-1.8,4.2-4.2s-1.8-4.2-4.2-4.2c-2.4,0-4.2,1.8-4.2,4.2C14.7,20,16.5,21.8,18.9,21.9z
	 M13,8.4c-1.8,0-3.6,0-5.4,0c-1.2,0-2.4,0-3.6,0c-0.2,0-0.3,0.1-0.3,0.3c0,0.3,0,0.7,0,1c0,0.4,0,0.4,0.4,0.4c3.6,0,7.3,0,10.9,0
	c2.3,0,4.6,0,6.9,0c0.2,0,0.3-0.1,0.3-0.3c0-0.3,0-0.7,0-1c0-0.3,0-0.3-0.4-0.3C19,8.4,16,8.4,13,8.4z"/>
<g>
	<path class="st1" d="M13,22.1c-3.4,0-6.8,0-10.2,0c-1.3,0-2.4-0.8-2.7-2C0,19.9,0,19.6,0,19.3C0,15.2,0,11,0,6.9c0-1,0.2-1.8,1-2.4
		C1.6,4,2.2,3.9,2.9,3.9c6.8,0,13.5,0,20.3,0c0.2,0,0.3,0,0.5,0C25,4.1,26,5.2,26,6.6c0,4.3,0,8.6,0,12.9c0,1.5-1.2,2.7-2.8,2.7
		C19.8,22.1,16.4,22.1,13,22.1z M13,16.9c-1.6,0-3.2,0-4.8,0c-0.2,0-0.3,0.1-0.3,0.3c0,0.6,0,1.3,0,1.9c0,0.2,0.1,0.3,0.3,0.3
		c3.2,0,6.4,0,9.7,0c0.3,0,0.3-0.1,0.3-0.3c0-0.6,0-1.2,0-1.8c0-0.3-0.1-0.4-0.4-0.4C16.2,16.9,14.6,16.9,13,16.9z M5.2,10.4
		c0.3,0,0.7,0,1,0c0.2,0,0.3-0.1,0.3-0.3c0-0.7,0-1.3,0-2c0-0.2,0-0.2-0.2-0.2c-0.7,0-1.4,0-2.1,0C4,7.9,4,7.9,4,8.1
		c0,0.7,0,1.4,0,2c0,0.2,0.1,0.3,0.3,0.2C4.6,10.4,4.9,10.4,5.2,10.4z M9.1,10.4c0.3,0,0.6,0,1,0c0.2,0,0.3,0,0.3-0.2
		c0-0.7,0-1.4,0-2c0-0.2,0-0.2-0.2-0.2c-0.7,0-1.4,0-2.1,0c-0.2,0-0.2,0.1-0.2,0.2c0,0.7,0,1.4,0,2c0,0.2,0.1,0.3,0.3,0.2
		C8.5,10.4,8.8,10.4,9.1,10.4z M14.3,9.1c0-0.3,0-0.6,0-1c0-0.2-0.1-0.3-0.3-0.3c-0.6,0-1.3,0-1.9,0c-0.2,0-0.3,0.1-0.3,0.3
		c0,0.7,0,1.3,0,2c0,0.2,0.1,0.3,0.3,0.3c0.7,0,1.3,0,2,0c0.2,0,0.3-0.1,0.3-0.3C14.2,9.8,14.3,9.5,14.3,9.1z M18.1,9.1
		c0-0.3,0-0.6,0-1c0-0.2-0.1-0.3-0.3-0.3c-0.6,0-1.3,0-1.9,0c-0.2,0-0.3,0.1-0.3,0.3c0,0.7,0,1.3,0,2c0,0.2,0.1,0.3,0.3,0.3
		c0.7,0,1.3,0,2,0c0.2,0,0.3-0.1,0.3-0.3C18.1,9.8,18.1,9.5,18.1,9.1z M20.7,7.9c-0.3,0-0.6,0-1,0c-0.2,0-0.3,0-0.3,0.2
		c0,0.7,0,1.4,0,2c0,0.2,0,0.2,0.2,0.2c0.7,0,1.4,0,2.1,0c0.2,0,0.2-0.1,0.2-0.2c0-0.7,0-1.4,0-2c0-0.2-0.1-0.3-0.3-0.2
		C21.4,7.9,21.1,7.9,20.7,7.9z M6.5,13c0-0.3,0-0.6,0-1c0-0.2,0-0.3-0.2-0.3c-0.7,0-1.4,0-2,0c-0.2,0-0.2,0-0.2,0.2
		c0,0.7,0,1.4,0,2.1c0,0.2,0.1,0.2,0.2,0.2c0.7,0,1.4,0,2,0c0.2,0,0.3-0.1,0.2-0.3C6.5,13.7,6.5,13.3,6.5,13z M9.1,11.7
		c-0.3,0-0.7,0-1,0c-0.2,0-0.3,0-0.3,0.2c0,0.7,0,1.4,0,2c0,0.2,0,0.2,0.2,0.2c0.7,0,1.4,0,2.1,0c0.2,0,0.2-0.1,0.2-0.2
		c0-0.7,0-1.4,0-2c0-0.2-0.1-0.3-0.3-0.2C9.8,11.7,9.5,11.7,9.1,11.7z M11.7,13c0,0.3,0,0.6,0,0.9c0,0.2,0.1,0.3,0.3,0.3
		c0.6,0,1.3,0,1.9,0c0.2,0,0.3-0.1,0.3-0.3c0-0.6,0-1.3,0-1.9c0-0.2-0.1-0.3-0.3-0.3c-0.7,0-1.3,0-2,0c-0.2,0-0.3,0.1-0.3,0.3
		C11.7,12.4,11.7,12.7,11.7,13z M18.1,13c0-0.3,0-0.7,0-1c0-0.2,0-0.3-0.3-0.3c-0.7,0-1.3,0-2,0c-0.2,0-0.3,0-0.3,0.2
		c0,0.7,0,1.4,0,2c0,0.2,0.1,0.2,0.3,0.2c0.7,0,1.3,0,2,0c0.2,0,0.3-0.1,0.3-0.3C18.1,13.7,18.1,13.3,18.1,13z M19.5,13
		c0,0.3,0,0.6,0,1c0,0.2,0.1,0.3,0.3,0.3c0.6,0,1.3,0,1.9,0c0.2,0,0.3-0.1,0.3-0.3c0-0.6,0-1.3,0-1.9c0-0.2-0.1-0.3-0.3-0.3
		c-0.7,0-1.3,0-2,0c-0.2,0-0.3,0.1-0.3,0.3C19.5,12.3,19.5,12.7,19.5,13z"/>
</g>
</svg>
